Coordinates
version=1
nRows=32
nColumns=22
inDegrees=yes

Units are S.I. units (second, meters, Newtons, ...)
If the header above contains a line with 'inDegrees', this indicates whether rotational values are in degrees (yes) or radians (no).

endheader
time	pelvis_tilt	pelvis_list	pelvis_rotation	pelvis_tx	pelvis_ty	pelvis_tz	hip_flexion_r	hip_adduction_r	hip_rotation_r	knee_angle_r	ankle_angle_r	subtalar_angle_r	hip_flexion_l	hip_adduction_l	hip_rotation_l	knee_angle_l	ankle_angle_l	subtalar_angle_l	lumbar_extension	lumbar_bending	lumbar_rotation
      2.85000000	      2.78828572	      1.76017994	     85.42621239	     -0.15777617	      1.01243064	     -0.45740670	     -1.98792246	      4.02196711	     -4.12319274	    -19.58515143	     15.06408174	      1.68666449	     12.82850789	     -0.63230915	     -4.71869352	    -18.49540272	      5.96315350	     -3.55028008	    -12.95810083	      3.38420708	      3.33943623
      2.86000000	      2.58644597	      1.65795572	     85.14934228	     -0.15853847	      1.01227732	     -0.46029996	     -1.14176948	      3.67612521	     -3.96540523	    -21.20780470	     15.13238639	      1.86314660	     12.70049730	     -0.39991022	     -4.99551361	    -18.41838282	      6.14307506	     -3.52577395	    -12.81957638	      3.10195616	      3.47087043
      2.87000000	      2.37740105	      1.51330460	     84.87842698	     -0.15927160	      1.01205767	     -0.46303857	     -0.18435619	      3.33322109	     -3.81404489	    -22.91745740	     15.10795045	      2.08656777	     12.63336133	     -0.16574742	     -5.27970232	    -18.34865549	      6.35907831	     -3.47063308	    -12.64339506	      2.81755158	      3.54683737
      2.88000000	      2.17091463	      1.38388426	     84.60585515	     -0.15995244	      1.01188128	     -0.46566829	      0.80208560	      2.99529017	     -3.69391762	    -24.68048338	     15.04118050	      2.29814191	     12.53222811	      0.06493251	     -5.56645474	    -18.22890928	      6.53336149	     -3.39082746	    -12.49570530	      2.53114922	      3.61445737
      2.89000000	      1.96453327	      1.27046247	     84.35413259	     -0.16059334	      1.01173711	     -0.46821148	      1.79462717	      2.66053864	     -3.61677698	    -26.45510077	     14.92118899	      2.51144580	     12.40904792	      0.29689543	     -5.84159958	    -18.08270160	      6.70286404	     -3.28322901	    -12.37115592	      2.23895872	      3.63943904
      2.90000000	      1.76032007	      1.17665868	     84.13482846	     -0.16122134	      1.01162684	     -0.47067271	      2.77133964	      2.33052686	     -3.57262033	    -28.20610359	     14.75636284	      2.73148966	     12.26845429	      0.53031210	     -6.09499519	    -17.92609249	      6.87345281	     -3.14272542	    -12.27537251	      1.94825960	      3.60103229
      2.91000000	      1.56257666	      1.12974480	     83.94456206	     -0.16185434	      1.01160089	     -0.47309985	      3.68479045	      1.99561465	     -3.59725162	    -29.89916929	     14.59070025	      2.92201428	     12.06121102	      0.76619655	     -6.32935810	    -17.72603484	      7.01438809	     -2.98934729	    -12.23494098	      1.66385694	      3.54004315
      2.92000000	      1.36465160	      1.14080381	     83.79821068	     -0.16246752	      1.01167773	     -0.47547448	      4.50412702	      1.65975034	     -3.64237343	    -31.49031431	     14.41540505	      3.07204729	     11.78908795	      1.01218924	     -6.51944998	    -17.50753768	      7.14378170	     -2.84562468	    -12.26373842	      1.36903249	      3.39169035
      2.93000000	      1.20583050	      1.09494954	     83.70112714	     -0.16313395	      1.01165221	     -0.47778315	      5.35905914	      1.35948729	     -3.76560479	    -32.98774970	     14.26585222	      3.32350194	     11.60024613	      1.21299095	     -6.69051300	    -17.32095963	      7.31231502	     -2.60959780	    -12.22731342	      1.14180013	      3.22681908
      2.94000000	      1.03503171	      1.15649908	     83.63672203	     -0.16378818	      1.01182179	     -0.48006917	      6.04562360	      1.03773428	     -3.89477899	    -34.32924957	     14.17618090	      3.43703081	     11.27004920	      1.44769909	     -6.80355417	    -17.07198993	      7.41631243	     -2.47383305	    -12.31453032	      0.88690333	      2.99430134
      2.95000000	      0.88467698	      1.19368686	     83.61807734	     -0.16448105	      1.01195065	     -0.48229495	      6.71740210	      0.73634037	     -4.05963849	    -35.53061123	     14.16125579	      3.57495882	     10.97872918	      1.66312028	     -6.88526854	    -16.83532988	      7.51885621	     -2.31244493	    -12.37270585	      0.66931115	      2.73712641
      2.96000000	      0.75707170	      1.23534779	     83.63718579	     -0.16518714	      1.01210355	     -0.48447812	      7.33112446	      0.45929792	     -4.24132310	    -36.56400672	     14.20998534	      3.68294610	     10.68398529	      1.85987004	     -6.93069935	    -16.59447646	      7.61646474	     -2.17079959	    -12.43314502	      0.48545949	      2.44689756
      2.97000000	      0.65276715	      1.27953160	     83.68843935	     -0.16589567	      1.01228573	     -0.48663694	      7.88394746	      0.20874350	     -4.43324765	    -37.41844875	     14.32344260	      3.73970711	     10.37997033	      2.03749212	     -6.94647645	    -16.33697662	      7.70162741	     -2.06601367	    -12.49109466	      0.33515265	      2.13167728
      2.98000000	      0.57497499	      1.31741148	     83.77079724	     -0.16661028	      1.01247298	     -0.48871237	      8.39676338	     -0.00889604	     -4.62470899	    -38.10816717	     14.47300369	      3.76285483	     10.09842752	      2.19107510	     -6.91847449	    -16.10207096	      7.77033020	     -1.98204129	    -12.54672167	      0.22179838	      1.81708227
      2.99000000	      0.52684469	      1.34910330	     83.87326530	     -0.16731033	      1.01268079	     -0.49075566	      8.85898254	     -0.18937883	     -4.80775950	    -38.61853871	     14.63770199	      3.74886043	      9.82176581	      2.31505066	     -6.87091924	    -15.86298135	      7.84529089	     -1.93135810	    -12.59160775	      0.14870791	      1.50017151
      3.00000000	      0.50472250	      1.36514382	     83.99393203	     -0.16799104	      1.01290097	     -0.49277883	      9.27948547	     -0.33556383	     -4.98192745	    -38.95205406	     14.82043681	      3.71054062	      9.55829152	      2.41251498	     -6.79325151	    -15.61628242	      7.88581661	     -1.90520797	    -12.61171208	      0.11067717	      1.17905019
      3.01000000	      0.51297665	      1.36810287	     84.13553842	     -0.16867141	      1.01313622	     -0.49476476	      9.65980228	     -0.44522743	     -5.15227276	    -39.12126932	     14.98394573	      3.65177235	      9.31907314	      2.47765734	     -6.69068966	    -15.38678721	      7.88313062	     -1.91142917	    -12.61495500	      0.11386580	      0.86773619
      3.02000000	      0.54662632	      1.37395828	     84.26185699	     -0.16929434	      1.01339245	     -0.49669945	      9.99454226	     -0.51075953	     -5.25386076	    -39.14761663	     15.13188108	      3.60023390	      9.08251494	      2.51212853	     -6.57933882	    -15.17088987	      7.92019177	     -1.93942800	    -12.62460421	      0.14316538	      0.60126393
      3.03000000	      0.60157774	      1.37272422	     84.39575595	     -0.16991413	      1.01366174	     -0.49860531	     10.29029025	     -0.54883246	     -5.34024737	    -39.03751562	     15.24150846	      3.54311870	      8.86684133	      2.52148608	     -6.46348180	    -14.97729786	      7.91683587	     -1.99843349	    -12.62609752	      0.20227223	      0.35139063
      3.04000000	      0.67382809	      1.36893739	     84.51804422	     -0.17048857	      1.01393080	     -0.50047188	     10.55435745	     -0.55678125	     -5.38510267	    -38.81789367	     15.32114253	      3.47777137	      8.66733416	      2.50746194	     -6.35509901	    -14.80807153	      7.91945984	     -2.08834947	    -12.62651608	      0.27996419	      0.14081465
      3.05000000	      0.75580530	      1.36919880	     84.64155044	     -0.17102963	      1.01420485	     -0.50231405	     10.77538255	     -0.54594427	     -5.40671279	    -38.49152722	     15.36486639	      3.37098427	      8.48242054	      2.47961321	     -6.25586232	    -14.67148603	      7.92931386	     -2.25800092	    -12.63178131	      0.36626001	     -0.04878224
      3.06000000	      0.84190131	      1.35127836	     84.71453378	     -0.17144089	      1.01443805	     -0.50408939	     11.00137885	     -0.49931586	     -5.31958255	    -38.09724233	     15.42766770	      3.30649828	      8.32956249	      2.43582336	     -6.17830644	    -14.55775011	      7.92979653	     -2.35226114	    -12.62052460	      0.44463487	     -0.15101225
      3.07000000	      0.94206214	      1.33236051	     84.78577317	     -0.17179544	      1.01464722	     -0.50581728	     11.20797380	     -0.42734086	     -5.21566813	    -37.64405645	     15.47402314	      3.21751675	      8.19555236	      2.37300540	     -6.10212038	    -14.47361085	      7.94136895	     -2.49167440	    -12.61399364	      0.53781067	     -0.24401281
      3.08000000	      1.05354920	      1.32031916	     84.85032840	     -0.17208512	      1.01483573	     -0.50750187	     11.39020727	     -0.33116386	     -5.09229896	    -37.14377925	     15.47605191	      3.03931334	      8.07514332	      2.29298086	     -6.06095139	    -14.42501023	      7.98809071	     -2.80367340	    -12.62068354	      0.63919768	     -0.32539777
      3.09000000	      1.16107569	      1.28598069	     84.88394927	     -0.17223642	      1.01495975	     -0.50911184	     11.59207640	     -0.21169632	     -4.89834568	    -36.61963954	     15.51057515	      2.94476343	      7.99631965	      2.20709838	     -6.01613427	    -14.40497635	      8.01660575	     -3.00742190	    -12.60745318	      0.72000208	     -0.34823768
      3.10000000	      1.26510752	      1.24613294	     84.90821842	     -0.17230137	      1.01504190	     -0.51065210	     11.79404210	     -0.07946064	     -4.67220970	    -36.08088964	     15.56496360	      2.89827201	      7.94161453	      2.12157513	     -5.94691069	    -14.41208088	      8.03435358	     -3.14292101	    -12.59452059	      0.78786671	     -0.33619389
      3.11000000	      1.37520550	      1.19459530	     84.91812711	     -0.17226489	      1.01506323	     -0.51212807	     12.00588688	      0.07910963	     -4.41091339	    -35.53807904	     15.56520438	      2.81844002	      7.92847523	      2.01783658	     -5.92305973	    -14.46866896	      8.10493550	     -3.51930160	    -12.57415296	      0.85520914	     -0.33226897
      3.12000000	      1.49686260	      1.14919162	     84.91831628	     -0.17213793	      1.01507472	     -0.51354733	     12.20123530	      0.26219447	     -4.13500977	    -34.98786765	     15.57069252	      2.83222541	      7.93036659	      1.89426071	     -5.89867944	    -14.56499245	      8.19013393	     -3.66924296	    -12.56878580	      0.92646331	     -0.30125105
      3.13000000	      1.61168183	      1.10000008	     84.90633521	     -0.17194469	      1.01505899	     -0.51493223	     12.39653814	      0.44569316	     -3.85461588	    -34.44482650	     15.60053366	      2.86467758	      7.94256808	      1.77501157	     -5.85161112	    -14.66971129	      8.26510781	     -3.80971603	    -12.55938974	      0.98297381	     -0.23615900
      3.14000000	      1.72872649	      1.04925454	     84.87523509	     -0.17167817	      1.01501567	     -0.51626611	     12.59275811	      0.64186501	     -3.55975177	    -33.91581274	     15.59593189	      2.92885142	      7.98228976	      1.64239596	     -5.84374091	    -14.82255840	      8.38393492	     -3.97939484	    -12.55257005	      1.03800769	     -0.16938751
      3.15000000	      1.83663923	      1.00056306	     84.83405891	     -0.17137723	      1.01495782	     -0.51756902	     12.78499514	      0.83086159	     -3.27332730	    -33.40511381	     15.58598023	      3.01030952	      8.03169580	      1.51505393	     -5.84452716	    -14.99503495	      8.51215219	     -4.13840450	    -12.54885690	      1.08300864	     -0.09338051
      3.16000000	      1.92903142	      0.95341118	     84.78126528	     -0.17106230	      1.01488031	     -0.51882748	     12.97994718	      1.00355938	     -2.99622525	    -32.92320764	     15.54139501	      3.12634629	      8.10503592	      1.39852817	     -5.87666675	    -15.21130156	      8.66085442	     -4.32857483	    -12.54905470	      1.11653757	     -0.01657207
